<?xml version="1.0" standalone="no"?>
<!DOCTYPE svg PUBLIC "-//W3C//DTD SVG 20010904//EN"
 "http://www.w3.org/TR/2001/REC-SVG-20010904/DTD/svg10.dtd">
<svg version="1.0" xmlns="http://www.w3.org/2000/svg"
 width="645.000000pt" height="645.000000pt" viewBox="0 0 645.000000 645.000000"
 preserveAspectRatio="xMidYMid meet">
<metadata>
Created by potrace 1.11, written by Peter Selinger 2001-2013
</metadata>
<g transform="translate(0.000000,645.000000) scale(0.100000,-0.100000)"
fill="#000000" stroke="none">
<path d="M3690 5681 c-45 -14 -114 -53 -171 -97 -111 -85 -133 -233 -56 -369
24 -44 107 -105 141 -105 11 0 32 -9 46 -20 17 -13 41 -20 74 -20 37 0 64 -8
112 -35 65 -36 121 -51 76 -19 -27 18 -30 46 -4 37 9 -4 35 -19 56 -35 21 -15
44 -28 50 -28 18 0 82 -35 113 -61 16 -13 47 -33 71 -43 23 -10 44 -27 47 -38
4 -10 11 -16 16 -13 5 4 9 0 9 -7 0 -7 3 -23 6 -34 5 -20 2 -20 -56 9 -43 22
-80 32 -123 35 l-62 3 54 -30 c67 -38 69 -40 51 -51 -11 -7 -12 -12 -3 -21 6
-6 9 -17 6 -24 -4 -13 30 -39 39 -29 8 7 74 -70 94 -108 16 -32 16 -32 -1 -18
-17 14 -17 14 0 -20 15 -29 15 -33 2 -22 -13 11 -11 -1 8 -65 14 -43 34 -103
45 -133 l20 -55 -5 45 c-5 42 -5 44 9 24 8 -12 18 -51 22 -87 10 -102 -10
-172 -30 -102 -3 11 -3 -18 -1 -65 3 -47 5 -107 5 -134 0 -44 2 -48 13 -31 16
21 37 12 37 -17 0 -14 -5 -18 -15 -14 -11 4 -15 -2 -15 -23 0 -15 -3 -57 -6
-92 l-6 -64 22 25 21 25 -7 -25 c-16 -59 -44 -100 -66 -97 -15 1 -23 -4 -26
-18 -2 -11 -15 -45 -29 -75 -21 -47 -26 -52 -35 -36 -8 15 -12 16 -19 5 -12
-19 -11 -116 1 -124 5 -3 28 11 51 32 l42 38 -18 -34 c-40 -78 -109 -175 -197
-277 -151 -175 -157 -183 -65 -98 48 45 96 93 108 108 21 27 39 34 39 15 0 -6
-52 -64 -115 -129 -88 -89 -112 -119 -100 -124 9 -3 13 -11 9 -17 -20 -33 98
52 161 116 22 22 67 60 99 85 53 41 106 102 106 123 0 4 -28 -22 -61 -58 -34
-36 -64 -64 -66 -61 -3 2 32 57 75 123 87 128 146 240 182 346 13 37 29 67 36
67 7 0 18 8 23 18 7 12 10 13 11 3 0 -11 5 -10 20 4 12 11 20 13 20 6 0 -9 5
-9 20 -1 26 14 26 -3 0 -99 -12 -40 -19 -75 -17 -77 2 -2 16 29 32 68 25 65
50 112 45 83 -6 -28 3 -26 30 5 l30 35 -6 -49 c-6 -43 -5 -48 10 -43 22 9 21
2 -19 -110 -19 -54 -35 -99 -35 -99 0 -10 36 -11 48 -2 13 11 14 8 9 -27 l-7
-40 21 50 c12 28 32 99 45 158 13 62 41 147 65 200 22 50 47 121 55 157 16 77
18 216 4 225 -21 13 -39 -17 -42 -68 -5 -79 -23 -57 -25 30 -3 94 1 110 22 93
12 -10 15 -9 15 9 0 11 5 21 10 21 6 0 10 -4 10 -10 0 -5 5 -10 11 -10 31 0
-49 349 -116 505 l-17 40 21 -20 c12 -11 34 -52 51 -90 16 -39 30 -63 30 -55
1 54 -148 355 -237 479 -80 111 -194 236 -186 205 2 -12 0 -25 -7 -29 -13 -8
-41 13 -38 29 4 15 -32 62 -107 140 -65 67 -295 238 -317 235 -26 -3 -35 1
-74 36 -30 27 -45 34 -64 30 -19 -4 -21 -3 -10 5 18 12 -110 13 -150 1z m637
-939 c23 -31 63 -107 63 -119 0 -4 -12 12 -27 37 -14 25 -36 56 -49 71 -13 14
-24 28 -24 32 0 15 17 6 37 -21z"/>
<path d="M4536 3595 c-3 -8 -10 -14 -16 -13 -6 2 -22 -30 -35 -70 -14 -40 -43
-109 -66 -153 -22 -45 -38 -86 -36 -92 2 -7 34 49 72 123 37 74 69 137 72 140
2 2 8 -1 12 -9 6 -9 13 0 25 29 9 23 14 46 11 51 -9 14 -32 11 -39 -6z"/>
<path d="M4496 3415 c-29 -73 -30 -75 -17 -75 5 0 18 21 29 48 28 67 35 92 24
92 -6 0 -22 -29 -36 -65z"/>
<path d="M4473 3190 c-34 -63 -31 -74 12 -37 25 21 48 97 29 97 -5 0 -24 -27
-41 -60z"/>
<path d="M4109 3205 c-8 -9 -41 -20 -72 -25 -31 -5 -66 -14 -79 -21 l-23 -13
23 -5 24 -6 -21 -19 c-25 -23 -27 -46 -5 -46 14 0 14 -3 4 -15 -9 -11 -10 -15
-1 -15 13 0 118 106 152 153 22 30 21 35 -2 12z"/>
<path d="M4286 3066 c-20 -23 -36 -47 -36 -51 0 -11 47 33 72 68 31 44 3 31
-36 -17z"/>
<path d="M4297 2982 c-55 -57 -169 -151 -232 -191 -62 -39 -52 -40 25 -1 33
17 64 30 70 30 33 0 220 167 220 195 0 27 -41 10 -83 -33z"/>
<path d="M3837 2835 c-37 -18 -85 -40 -107 -49 -36 -14 -56 -46 -29 -46 14 0
104 51 174 97 63 42 49 41 -38 -2z"/>
<path d="M3532 2726 c-54 -14 -70 -22 -60 -32 4 -3 37 6 75 20 74 27 68 32
-15 12z"/>
<path d="M3705 2663 c-22 -8 -51 -16 -65 -18 -14 -2 -81 -16 -150 -33 -69 -17
-154 -34 -190 -39 -57 -8 -50 -9 58 -7 95 3 146 9 219 29 93 26 203 68 203 79
0 10 -34 5 -75 -11z"/>
<path d="M3600 2525 c-23 -9 -28 -14 -15 -14 11 0 31 6 45 14 31 18 16 18 -30
0z"/>
<path d="M3250 2508 l-65 -10 60 -19 c73 -23 91 -23 99 -4 3 8 13 15 22 15 8
0 14 6 12 13 -6 16 -47 17 -128 5z"/>
<path d="M3415 2480 c-4 -6 5 -10 19 -10 14 0 26 5 26 10 0 6 -9 10 -19 10
-11 0 -23 -4 -26 -10z"/>
<path d="M2610 1636 l0 -356 90 0 90 0 0 94 0 94 108 4 c84 3 116 8 147 25
188 100 189 362 1 457 -57 30 -61 30 -247 34 l-189 4 0 -356z m379 178 c30
-21 51 -71 44 -107 -3 -15 -19 -38 -35 -52 -27 -23 -38 -25 -119 -25 l-89 0 0
100 0 100 88 0 c65 0 94 -4 111 -16z"/>
<path d="M1939 1963 c-67 -22 -139 -81 -177 -143 -41 -70 -52 -109 -52 -192 0
-87 28 -163 85 -225 196 -219 552 -117 604 173 29 158 -66 328 -215 383 -66
25 -177 27 -245 4z m202 -186 c53 -36 79 -82 79 -142 0 -163 -204 -227 -302
-95 -40 54 -35 148 9 201 52 62 151 79 214 36z"/>
<path d="M3390 1630 l0 -350 250 0 250 0 0 75 0 75 -160 0 -160 0 0 65 0 65
145 0 145 0 0 80 0 80 -145 0 -145 0 0 55 0 55 160 0 160 0 0 75 0 75 -250 0
-250 0 0 -350z"/>
<path d="M4132 1633 l3 -348 93 -3 92 -3 0 166 0 167 172 -166 c151 -145 177
-166 205 -166 l33 0 0 350 0 350 -90 0 -90 0 0 -160 c0 -88 -3 -160 -8 -160
-4 0 -79 72 -167 160 -157 157 -161 160 -203 160 l-42 0 2 -347z"/>
<path d="M2931 971 c-30 -28 -36 -49 -31 -111 5 -67 98 -96 139 -44 24 31 27
76 7 93 -15 12 -96 5 -96 -9 0 -15 26 -28 60 -32 l35 -4 -37 -18 c-35 -18 -38
-18 -62 -2 -50 32 -26 94 40 105 30 5 40 11 42 29 5 35 -56 31 -97 -7z"/>
<path d="M3117 913 c3 -49 10 -96 15 -105 15 -31 44 -21 61 20 l15 37 1 -48
c1 -29 5 -46 11 -42 6 4 10 -5 10 -20 0 -15 4 -24 10 -20 6 3 10 34 10 68 0
35 7 89 15 121 17 63 14 76 -15 76 -14 0 -29 -19 -52 -62 l-32 -63 -6 50 c-6
56 -15 75 -35 75 -11 0 -13 -17 -8 -87z"/>
<path d="M3336 894 c-4 -58 -5 -108 -3 -110 11 -11 36 29 42 68 l8 43 16 -40
c32 -80 41 -81 67 -2 l17 52 13 -48 c7 -26 15 -55 20 -65 12 -29 23 55 17 136
-7 84 -24 95 -52 32 -10 -22 -20 -37 -23 -34 -4 3 -9 -4 -13 -15 -11 -35 -21
-24 -34 34 -11 51 -15 55 -40 55 l-28 0 -7 -106z"/>
</g>
</svg>
