<?xml version="1.0" encoding="utf-8"?>
<!-- Generator: Adobe Illustrator 15.0.2, SVG Export Plug-In . SVG Version: 6.00 Build 0)  -->
<!DOCTYPE svg PUBLIC "-//W3C//DTD SVG 1.1//EN" "http://www.w3.org/Graphics/SVG/1.1/DTD/svg11.dtd">
<svg version="1.1" xmlns="http://www.w3.org/2000/svg" xmlns:xlink="http://www.w3.org/1999/xlink" x="0px" y="0px"
	 width="255.118px" height="57px" viewBox="0 0 255.118 57" enable-background="new 0 0 255.118 57" xml:space="preserve">
		<g>
			<g>
				<path fill="#20355A" d="M28.147,45.409c-3.871-0.021-6.998-0.688-9.292-1.984c-2.384-1.346-4.086-3.361-5.059-5.989
					c-0.942-2.548-1.131-5.476-0.563-8.702c0.591-3.359,1.867-6.329,3.792-8.825c1.938-2.51,4.491-4.433,7.588-5.715
					c2.367-0.97,5.381-1.46,8.963-1.46l0.231,0.001c3.597,0.021,6.196,0.347,7.946,0.998c1.839,0.682,3.31,1.759,4.369,3.203
					c1.037,1.41,1.695,3.192,1.956,5.297l0.17,1.376l-12.185,1.918l-0.236-1.397c-0.122-0.721-0.41-1.226-0.906-1.587
					c-0.549-0.4-1.374-0.604-2.452-0.609c0,0,0,0,0,0c-1.749,0-3.156,0.533-4.352,1.63c-1.229,1.125-2.085,3.017-2.543,5.622
					c-0.467,2.66-0.319,4.591,0.43,5.585c0.734,0.974,1.955,1.453,3.732,1.464c0,0,0.001,0,0.002,0c0.956,0,1.851-0.123,2.714-0.364
					c0.769-0.215,1.664-0.564,2.667-1.042l0.057-0.324l-6.341-0.035l1.56-8.862l17.556,0.097L45.377,40.33l-0.584,0.333
					c-3.208,1.831-6.037,3.096-8.409,3.762c-2.327,0.653-5.015,0.984-7.991,0.984L28.147,45.409z"/>
				<path fill="#01155C" d="M33.577,14.167c0.074,0,0.148,0,0.223,0c3.39,0.02,5.874,0.32,7.455,0.908
					c1.58,0.585,2.818,1.488,3.712,2.707c0.896,1.219,1.458,2.76,1.689,4.625l-9.416,1.482c-0.185-1.091-0.676-1.925-1.475-2.507
					c-0.797-0.582-1.894-0.878-3.29-0.884c-0.019,0-0.038,0-0.056,0c-2.055,0-3.812,0.668-5.271,2.007
					c-1.475,1.351-2.469,3.494-2.986,6.43c-0.548,3.12-0.316,5.351,0.697,6.696c1.013,1.345,2.635,2.021,4.868,2.035
					c0.021,0,0.042,0,0.064,0c1.038,0,2.055-0.14,3.047-0.417c1.013-0.283,2.202-0.767,3.566-1.457l0.478-2.713l-6.341-0.035
					l1.056-5.998l14.648,0.081l-2.163,12.291c-3.121,1.781-5.816,2.99-8.085,3.627c-2.208,0.62-4.744,0.93-7.604,0.93
					c-0.079,0-0.158,0-0.237,0c-3.641-0.02-6.507-0.619-8.596-1.799c-2.09-1.18-3.563-2.925-4.419-5.239
					c-0.856-2.316-1.022-4.966-0.495-7.956c0.553-3.146,1.726-5.878,3.516-8.198c1.791-2.319,4.125-4.075,7.001-5.266
					C27.357,14.619,30.163,14.167,33.577,14.167 M33.577,11.3c-3.769,0-6.966,0.527-9.501,1.565
					c-3.341,1.383-6.091,3.457-8.184,6.167c-2.07,2.683-3.439,5.863-4.07,9.453c-0.613,3.479-0.401,6.658,0.629,9.446
					c1.095,2.957,3.012,5.225,5.699,6.741c2.544,1.437,5.812,2.147,9.99,2.169l0.252,0.001c3.107,0,5.926-0.349,8.378-1.037
					c2.52-0.708,5.376-1.982,8.732-3.897l1.169-0.667l0.233-1.326l2.163-12.291l0.487-2.771l0.287-0.045l-0.341-2.752
					c-0.291-2.351-1.04-4.36-2.225-5.972c-1.226-1.67-2.917-2.915-5.025-3.697c-1.907-0.709-4.667-1.065-8.434-1.086L33.577,11.3
					L33.577,11.3z M29.648,24.17c0.795-0.546,1.692-0.804,2.771-0.804c1.093,0.004,1.521,0.235,1.657,0.334
					c0.083,0.061,0.215,0.157,0.302,0.497l-2.767-0.015L29.648,24.17L29.648,24.17z M27.426,34.202
					c-0.146-0.119-0.228-0.227-0.278-0.294c-0.372-0.494-0.61-1.929-0.163-4.475c0.402-2.286,1.109-3.905,2.099-4.813
					c0.011-0.01,0.022-0.021,0.034-0.031l-0.345,1.961l-1.056,5.998L27.426,34.202L27.426,34.202z"/>
			</g>
			<g>
				<polygon fill="#ED1C24" points="63.313,45.111 60.902,39.555 55.958,45.07 42.848,44.998 54.313,32.507 47.667,21.254
					61.241,21.331 63.222,25.954 67.289,21.362 80.628,21.438 69.762,32.975 76.659,45.185 				"/>
				<path fill="#01155C" d="M50.186,22.701l10.107,0.057l2.501,5.838l5.136-5.797l9.396,0.053l-9.332,9.908l6.201,10.978
					l-9.939-0.055l-2.929-6.749l-6.006,6.699l-9.229-0.051l9.995-10.889L50.186,22.701 M45.147,19.806l2.571,4.353l4.821,8.162
					l-8.558,9.323l-4.377,4.769l6.474,0.036l9.229,0.051l1.289,0.007l0.861-0.96l3.022-3.371l1.149,2.648l0.744,1.715l1.869,0.01
					l9.939,0.055l4.943,0.028l-2.431-4.304l-5.163-9.139l7.884-8.371l4.516-4.794l-6.586-0.037l-9.396-0.053l-1.3-0.008
					l-0.862,0.973l-2.137,2.412l-0.72-1.681l-0.74-1.727l-1.879-0.01l-10.107-0.057L45.147,19.806L45.147,19.806z"/>
			</g>
			<g>
				<path fill="#20355A" d="M75.818,45.179l5.577-31.691l16.967,0.093c3.829,0.021,6.637,0.963,8.347,2.799
					c1.755,1.883,2.352,4.503,1.774,7.787c-0.574,3.265-2.103,5.856-4.542,7.703c-2.366,1.793-5.621,2.703-9.673,2.703l-4.141-0.023
					l-1.882,10.698L75.818,45.179z M92.288,25.851c1.914,0,2.775-0.334,3.174-0.615c0.533-0.374,0.827-0.806,0.924-1.359
					c0.11-0.619-0.073-0.933-0.244-1.137c-0.003-0.003-0.393-0.44-2.365-0.451l-1.489-0.008l-0.627,3.567
					C91.66,25.847,92.287,25.851,92.288,25.851z"/>
				<path fill="#01155C" d="M82.596,14.928l15.757,0.086c3.432,0.02,5.868,0.8,7.306,2.343c1.438,1.543,1.91,3.729,1.412,6.562
					c-0.512,2.912-1.844,5.18-3.995,6.808c-2.122,1.608-5.059,2.413-8.809,2.413c-0.05,0-0.101,0-0.152,0l-5.19-0.029l-1.882,10.698
					l-9.521-0.053L82.596,14.928 M92.366,27.284c1.782,0,3.088-0.291,3.92-0.875c0.844-0.592,1.348-1.353,1.512-2.284
					c0.16-0.902-0.027-1.673-0.558-2.306c-0.532-0.633-1.683-0.954-3.455-0.963l-2.699-0.016l-1.131,6.43l2.322,0.014
					C92.307,27.284,92.336,27.284,92.366,27.284 M80.192,12.048l-0.419,2.383L74.7,43.259l-0.588,3.344l3.396,0.019l9.521,0.053
					l2.42,0.014l0.419-2.383l1.463-8.315l2.77,0.016l0.168,0c4.372,0,7.918-1.007,10.54-2.994c2.735-2.07,4.447-4.962,5.086-8.596
					c0.659-3.751-0.06-6.783-2.138-9.013c-1.99-2.136-5.148-3.231-9.387-3.255l-15.758-0.086L80.192,12.048L80.192,12.048z
					 M93.375,24.373l0.115-0.653l0.278,0.001c0.53,0.003,0.898,0.041,1.144,0.081c-0.045,0.071-0.124,0.156-0.272,0.26
					C94.623,24.074,94.318,24.279,93.375,24.373L93.375,24.373z"/>
			</g>
			<g>
				<polygon fill="#20355A" points="105.369,39.732 106.696,32.184 118.972,32.25 117.643,39.799 				"/>
				<path fill="#01155C" d="M107.898,33.624l9.368,0.051l-0.825,4.685l-9.367-0.051L107.898,33.624 M105.494,30.744l-0.419,2.383
					l-0.824,4.685l-0.588,3.345l3.396,0.019l9.367,0.051l2.419,0.013l0.419-2.382l0.825-4.685l0.589-3.345l-3.396-0.019
					l-9.368-0.051L105.494,30.744L105.494,30.744z"/>
			</g>
			<g>
				<path fill="#20355A" d="M127.992,45.837c-4.412-0.022-7.319-0.895-8.886-2.668c-1.532-1.737-2.196-3.933-1.975-6.529
					l0.106-1.243l6.463-0.341c-1.029-0.477-1.848-1.014-2.472-1.616c-1.492-1.43-2.082-3.333-1.701-5.5
					c0.243-1.378,0.892-2.678,1.928-3.864c1.02-1.167,2.4-2.085,4.103-2.729c1.608-0.608,3.69-0.917,6.185-0.917l0.185,0
					c3.311,0.018,5.721,0.633,7.365,1.882c1.766,1.345,2.598,3.419,2.473,6.167l-0.059,1.303L137.235,30
					c0.043,0.022,0.084,0.043,0.126,0.065c1.519,0.803,2.583,1.846,3.164,3.098c0.571,1.229,0.729,2.603,0.47,4.083
					c-0.293,1.657-1.05,3.189-2.249,4.555c-1.18,1.347-2.69,2.376-4.49,3.06c-1.706,0.648-3.761,0.977-6.106,0.977L127.992,45.837z
					 M126.882,36.449c-0.034,0.963,0.142,1.383,0.25,1.548c0.193,0.295,0.584,0.688,1.739,0.693c0,0,0,0,0,0
					c0.731,0,1.275-0.135,1.65-0.399c0.311-0.221,0.487-0.437,0.523-0.642c0.011-0.063,0.02-0.113-0.126-0.258
					c-0.042-0.037-0.51-0.407-2.743-0.898c-0.447-0.101-0.875-0.206-1.285-0.316L126.882,36.449z M129.286,27.623
					c0.233,0.084,0.637,0.206,1.304,0.346c0.511,0.11,0.996,0.22,1.457,0.331c-0.043-0.303-0.13-0.525-0.25-0.634
					c-0.219-0.197-0.685-0.309-1.312-0.313h-0.001c-0.526,0-0.929,0.085-1.153,0.238C129.315,27.601,129.3,27.612,129.286,27.623z"
					/>
				<path fill="#01155C" d="M131.742,21.863c0.059,0,0.117,0,0.177,0c2.965,0.016,5.133,0.546,6.508,1.59
					c1.373,1.046,2.01,2.697,1.907,4.96l-6.822,0.334c-0.007-0.983-0.259-1.699-0.754-2.146c-0.498-0.45-1.252-0.676-2.264-0.683
					c-0.01,0-0.02,0-0.029,0c-0.82,0-1.467,0.164-1.942,0.488c-0.479,0.33-0.762,0.733-0.845,1.209
					c-0.061,0.346,0.057,0.661,0.357,0.939c0.287,0.289,1.04,0.561,2.263,0.816c3.022,0.653,5.152,1.306,6.395,1.962
					c1.241,0.657,2.086,1.469,2.534,2.434c0.447,0.963,0.566,2.041,0.357,3.231c-0.247,1.398-0.884,2.684-1.914,3.857
					c-1.031,1.177-2.338,2.064-3.922,2.666c-1.549,0.588-3.415,0.883-5.598,0.883c-0.049,0-0.099,0-0.148,0
					c-3.945-0.02-6.552-0.749-7.82-2.184c-1.268-1.437-1.809-3.256-1.621-5.458l6.89-0.364c-0.036,1.042,0.126,1.836,0.484,2.383
					c0.583,0.889,1.56,1.335,2.931,1.341c0.013,0,0.026,0,0.04,0c1.005,0,1.818-0.22,2.444-0.663
					c0.633-0.448,1.003-0.969,1.107-1.563c0.1-0.566-0.075-1.073-0.524-1.521c-0.449-0.45-1.598-0.876-3.447-1.284
					c-3.028-0.682-5.114-1.577-6.26-2.683c-1.157-1.109-1.584-2.515-1.285-4.221c0.198-1.121,0.729-2.176,1.596-3.169
					c0.866-0.991,2.043-1.77,3.53-2.332C127.516,22.139,129.408,21.863,131.742,21.863 M131.742,18.997
					c-2.706,0-4.895,0.331-6.691,1.01c-1.925,0.728-3.499,1.78-4.675,3.127c-1.21,1.385-1.97,2.918-2.259,4.557
					c-0.413,2.353,0.113,4.459,1.523,6.146l-1.23,0.065l-2.493,0.131l-0.212,2.487c-0.256,3.001,0.526,5.557,2.327,7.598
					c1.854,2.099,5.11,3.13,9.956,3.154l0.163,0.001c2.52,0,4.747-0.36,6.616-1.07c2.021-0.768,3.724-1.93,5.061-3.457
					c1.373-1.564,2.242-3.331,2.58-5.247c0.313-1.777,0.117-3.438-0.58-4.938c-0.214-0.462-0.479-0.898-0.793-1.31l2.047-0.101
					l0.118-2.605c0.184-4.042-1.549-6.239-3.033-7.37c-1.905-1.446-4.596-2.157-8.23-2.176L131.742,18.997L131.742,18.997z"/>
			</g>
			<g>
				<path fill="#20355A" d="M153.086,45.977c-2.758-0.015-4.917-0.409-6.6-1.205c-1.771-0.834-3.175-2.288-4.172-4.318
					c-0.988-2.009-1.222-4.549-0.694-7.548c0.692-3.937,2.387-7.02,5.034-9.162c2.608-2.107,5.957-3.176,9.954-3.176l0.131,0
					c3.225,0.018,5.732,0.688,7.454,1.994c1.766,1.338,2.9,3.366,3.372,6.027l0.246,1.385l-9.403,1.845l-0.231-1.47
					c-0.109-0.694-0.233-0.914-0.248-0.936c-0.18-0.301-0.41-0.519-0.71-0.678c-0.321-0.17-0.729-0.257-1.21-0.26l0,0
					c-1.231,0-2.17,0.425-2.977,1.338c-0.636,0.708-1.104,1.912-1.399,3.585c-0.497,2.825-0.077,3.705,0.063,3.908
					c0.22,0.317,0.654,0.739,1.886,0.746h0.001c1.039,0,1.796-0.235,2.35-0.717c0.654-0.566,1.224-1.441,1.694-2.601l0.493-1.214
					l8.756,2.67l-0.637,1.472c-0.782,1.81-1.799,3.351-3.023,4.581c-1.242,1.242-2.694,2.189-4.318,2.818
					c-1.575,0.608-3.482,0.917-5.67,0.917L153.086,45.977z"/>
				<path fill="#01155C" d="M156.608,22c0.041,0,0.082,0,0.123,0c2.92,0.016,5.12,0.584,6.596,1.703
					c1.477,1.119,2.419,2.831,2.827,5.135l-6.562,1.288c-0.104-0.665-0.252-1.152-0.44-1.46c-0.31-0.517-0.731-0.916-1.263-1.197
					s-1.155-0.423-1.873-0.427c-0.011,0-0.021,0-0.031,0c-1.61,0-2.952,0.605-4.027,1.823c-0.813,0.906-1.393,2.335-1.736,4.285
					c-0.425,2.414-0.326,4.075,0.297,4.974c0.624,0.9,1.641,1.354,3.056,1.362c0.015,0,0.029,0,0.044,0
					c1.351,0,2.436-0.355,3.256-1.069c0.828-0.717,1.522-1.767,2.081-3.143l5.969,1.82c-0.714,1.651-1.622,3.031-2.724,4.138
					c-1.103,1.103-2.377,1.934-3.82,2.493c-1.414,0.546-3.132,0.82-5.152,0.82c-0.044,0-0.088,0-0.133,0
					c-2.521-0.014-4.52-0.369-5.996-1.067c-1.477-0.696-2.644-1.915-3.498-3.654c-0.855-1.74-1.045-3.963-0.569-6.668
					c0.635-3.605,2.144-6.369,4.524-8.296C149.911,22.955,152.929,22,156.608,22 M156.608,19.134c-4.333,0-7.984,1.175-10.854,3.494
					c-2.926,2.368-4.791,5.741-5.546,10.028c-0.581,3.306-0.305,6.142,0.82,8.431c1.144,2.329,2.775,4.005,4.849,4.982
					c1.872,0.886,4.229,1.325,7.202,1.341l0.148,0c2.364,0,4.445-0.34,6.185-1.012c1.814-0.702,3.434-1.758,4.815-3.14
					c1.355-1.363,2.474-3.052,3.327-5.028l1.272-2.943l-3.067-0.936l-5.017-1.53l5.963-1.17l2.762-0.542l-0.491-2.771
					c-0.536-3.028-1.854-5.356-3.919-6.919c-2.001-1.517-4.72-2.265-8.311-2.284L156.608,19.134L156.608,19.134z M152.905,36.515
					c-0.054-0.205-0.191-0.987,0.14-2.869c0.337-1.911,0.844-2.642,1.046-2.867c0.544-0.616,1.106-0.872,1.895-0.872
					c0.342,0.002,0.498,0.06,0.563,0.094c0.05,0.026,0.082,0.051,0.11,0.087c0.021,0.069,0.061,0.218,0.102,0.482l0.282,1.792
					l-0.744,1.832c-0.379,0.935-0.829,1.646-1.302,2.054c-0.283,0.247-0.745,0.37-1.379,0.37
					C153.161,36.617,152.964,36.543,152.905,36.515L152.905,36.515z"/>
			</g>
			<g>
				<path fill="#20355A" d="M181.329,45.76l-0.527-3.605l-6.008-0.032l-1.763,3.592l-10.685-0.061l14.204-24.605l9.794,0.051
					l5.522,24.717L181.329,45.76z M179.719,34.563l-0.258-1.717l-0.857,1.711L179.719,34.563z"/>
				<path fill="#01155C" d="M177.376,22.487l7.819,0.041l4.881,21.847l-7.507-0.041l-0.527-3.605l-8.139-0.043l-1.763,3.592
					l-7.319-0.042L177.376,22.487 M181.386,36.006l-1.182-7.848l-3.914,7.82L181.386,36.006 M175.726,19.612l-0.832,1.442
					l-12.555,21.748l-2.466,4.271l4.932,0.028l7.319,0.042l1.798,0.01l0.792-1.614l0.971-1.979l3.878,0.021l0.171,1.167l0.356,2.438
					l2.464,0.013l7.507,0.041l3.598,0.02l-0.784-3.511l-4.881-21.847l-0.498-2.229l-2.285-0.012l-7.819-0.041L175.726,19.612
					L175.726,19.612z"/>
			</g>
			<g>
				<path fill="#20355A" d="M190.742,45.812l4.341-24.663l11.86,0.066c2.324,0.013,4.132,0.327,5.528,0.959
					c1.438,0.651,2.583,1.604,3.4,2.834c0.793,1.195,1.282,2.587,1.453,4.139c0.159,1.463,0.097,3.021-0.188,4.634
					c-0.446,2.534-1.098,4.469-1.992,5.918c-0.882,1.427-1.984,2.642-3.279,3.609c-1.313,0.978-2.679,1.637-4.063,1.962
					c-1.715,0.404-3.279,0.61-4.647,0.61L190.742,45.812z M202.355,38.052c1.616,0,2.311-0.203,2.581-0.325
					c0.433-0.194,0.81-0.55,1.154-1.09c0.269-0.421,0.66-1.328,1.001-3.26c0.466-2.641,0.043-3.448-0.098-3.633
					c-0.355-0.468-1.288-0.729-2.628-0.737l-0.578-0.002l-1.593,9.047L202.355,38.052z"/>
				<path fill="#01155C" d="M196.285,22.589l10.65,0.059c2.098,0.012,3.747,0.289,4.944,0.832c1.199,0.542,2.131,1.317,2.799,2.322
					c0.668,1.006,1.075,2.174,1.222,3.503c0.146,1.333,0.088,2.741-0.174,4.229c-0.41,2.328-1.011,4.134-1.801,5.414
					s-1.763,2.351-2.918,3.214c-1.155,0.861-2.332,1.433-3.532,1.714c-1.617,0.381-3.057,0.572-4.32,0.572c-0.02,0-0.039,0-0.058,0
					l-10.649-0.059L196.285,22.589 M202.355,39.486c1.441,0,2.497-0.15,3.168-0.451c0.688-0.309,1.28-0.851,1.775-1.627
					c0.496-0.776,0.896-2.037,1.204-3.782c0.407-2.308,0.284-3.893-0.368-4.75c-0.651-0.857-1.904-1.292-3.761-1.302l-1.788-0.008
					l-2.097,11.909l1.756,0.01C202.282,39.485,202.319,39.486,202.355,39.486 M193.882,19.709l-0.42,2.383l-3.837,21.799
					l-0.589,3.345l3.396,0.019l10.649,0.059l0.073,0c1.479,0,3.154-0.218,4.979-0.648c1.573-0.369,3.117-1.111,4.587-2.206
					c1.443-1.078,2.668-2.426,3.645-4.007c0.991-1.606,1.706-3.707,2.185-6.422c0.307-1.747,0.374-3.441,0.2-5.037
					c-0.197-1.785-0.763-3.391-1.683-4.777c-0.971-1.458-2.317-2.584-4.006-3.348c-1.582-0.716-3.581-1.072-6.11-1.086l-10.65-0.059
					L193.882,19.709L193.882,19.709z M203.92,36.521l1.065-6.053c0.45,0.041,0.707,0.116,0.835,0.167
					c0.053,0.271,0.124,0.996-0.141,2.493c-0.336,1.909-0.694,2.578-0.796,2.737c-0.184,0.287-0.372,0.483-0.533,0.555
					C204.342,36.423,204.223,36.473,203.92,36.521L203.92,36.521z"/>
			</g>
			<g>
				<path fill="#20355A" d="M231.741,46.037l-0.526-3.604l-6.007-0.032l-1.765,3.592l-10.682-0.061l14.202-24.605l9.794,0.051
					l5.521,24.717L231.741,46.037z M230.132,34.843l-0.259-1.717l-0.855,1.711L230.132,34.843z"/>
				<path fill="#01155C" d="M227.789,22.764l7.819,0.041l4.879,21.847l-7.506-0.042l-0.526-3.605l-8.138-0.043l-1.765,3.592
					l-7.317-0.042L227.789,22.764 M231.798,36.285l-1.181-7.85l-3.913,7.822L231.798,36.285 M226.139,19.889l-0.832,1.442
					l-12.554,21.748l-2.466,4.271l4.932,0.028l7.317,0.042l1.797,0.01l0.792-1.612l0.973-1.98l3.877,0.021l0.17,1.166l0.356,2.439
					l2.465,0.013l7.506,0.042l3.598,0.02l-0.784-3.511l-4.879-21.847l-0.498-2.229l-2.285-0.012l-7.819-0.041L226.139,19.889
					L226.139,19.889z"/>
			</g>
		</g>
		<g>
			<g>
				<path fill="#01155C" d="M28.151,44.692c-3.748-0.021-6.757-0.657-8.944-1.892c-2.232-1.26-3.826-3.149-4.739-5.614
					c-0.897-2.427-1.075-5.229-0.529-8.33c0.57-3.244,1.8-6.107,3.654-8.511c1.861-2.41,4.315-4.257,7.295-5.491
					c2.278-0.933,5.2-1.406,8.688-1.406l0.227,0c3.512,0.021,6.031,0.332,7.701,0.953c1.706,0.633,3.066,1.627,4.04,2.955
					c0.964,1.311,1.578,2.98,1.823,4.961l0.085,0.688l-10.8,1.7l-0.118-0.698c-0.153-0.906-0.542-1.575-1.19-2.047
					c-0.672-0.49-1.639-0.742-2.871-0.747c0,0,0,0,0,0c-1.939,0-3.505,0.595-4.839,1.818c-1.348,1.234-2.278,3.262-2.765,6.026
					c-0.51,2.901-0.32,4.967,0.563,6.14c0.877,1.165,2.284,1.737,4.3,1.749c0,0,0.001,0,0.002,0c1.025,0,1.985-0.131,2.912-0.39
					c0.893-0.25,1.94-0.668,3.116-1.247l0.268-1.521l-6.341-0.035l1.308-7.43l16.103,0.088l-2.368,13.458l-0.292,0.167
					c-3.156,1.801-5.931,3.044-8.247,3.694c-2.264,0.635-4.887,0.957-7.798,0.957L28.151,44.692z"/>
				<path fill="#FFFFFF" d="M33.577,14.167c0.074,0,0.148,0,0.223,0c3.39,0.02,5.874,0.32,7.455,0.908
					c1.58,0.585,2.818,1.488,3.712,2.707c0.896,1.219,1.458,2.76,1.689,4.625l-9.416,1.482c-0.185-1.091-0.676-1.925-1.475-2.507
					c-0.797-0.582-1.894-0.878-3.29-0.884c-0.019,0-0.037,0-0.056,0c-2.055,0-3.812,0.668-5.271,2.007
					c-1.475,1.351-2.469,3.494-2.986,6.43c-0.548,3.12-0.316,5.351,0.697,6.696c1.013,1.345,2.635,2.021,4.868,2.035
					c0.021,0,0.042,0,0.064,0c1.039,0,2.055-0.14,3.047-0.417c1.013-0.283,2.202-0.767,3.566-1.457l0.478-2.713l-6.341-0.035
					l1.056-5.998l14.648,0.081l-2.163,12.291c-3.121,1.781-5.816,2.99-8.085,3.627c-2.208,0.62-4.744,0.93-7.604,0.93
					c-0.079,0-0.158,0-0.237,0c-3.641-0.02-6.507-0.619-8.596-1.799c-2.09-1.18-3.563-2.925-4.419-5.239
					c-0.856-2.316-1.022-4.966-0.495-7.956c0.553-3.146,1.726-5.878,3.516-8.198c1.791-2.319,4.125-4.075,7.001-5.266
					C27.357,14.619,30.163,14.167,33.577,14.167 M33.577,12.733c-3.582,0-6.596,0.491-8.958,1.458
					c-3.101,1.284-5.654,3.207-7.592,5.716c-1.926,2.497-3.202,5.466-3.793,8.826c-0.568,3.226-0.379,6.153,0.563,8.701
					c0.973,2.629,2.675,4.644,5.059,5.99c2.294,1.296,5.421,1.963,9.292,1.984l0.245,0.001c2.976,0,5.664-0.331,7.991-0.984
					c2.372-0.666,5.201-1.932,8.409-3.762l0.584-0.333l0.117-0.663l2.163-12.291l0.294-1.672l-1.698-0.009l-14.648-0.081
					l-1.209-0.007l-0.21,1.191l-1.056,5.998l-0.294,1.672l1.698,0.009l4.643,0.026l-0.057,0.324
					c-1.003,0.478-1.898,0.827-2.667,1.042c-0.864,0.241-1.76,0.364-2.661,0.364h-0.056c-1.776-0.011-2.997-0.49-3.73-1.464
					c-0.749-0.994-0.897-2.925-0.43-5.585c0.458-2.604,1.314-4.496,2.543-5.621c1.197-1.098,2.604-1.631,4.303-1.631
					c1.128,0.005,1.953,0.209,2.501,0.609c0.497,0.361,0.785,0.866,0.907,1.588l0.236,1.397l1.4-0.22l9.416-1.482l1.37-0.216
					l-0.17-1.376c-0.26-2.104-0.919-3.887-1.958-5.298c-1.058-1.442-2.528-2.52-4.369-3.202c-1.748-0.65-4.348-0.977-7.944-0.998
					L33.577,12.733L33.577,12.733z"/>
			</g>
			<g>
				<polygon fill="#FED000" points="63.785,44.396 61.114,38.245 55.639,44.352 44.47,44.29 55.2,32.6 48.926,21.978 60.767,22.044
					63.008,27.275 67.61,22.081 78.978,22.145 68.878,32.867 75.427,44.461 				"/>
				<path fill="#FFFFFF" d="M50.186,22.701l10.107,0.057l2.501,5.838l5.136-5.797l9.396,0.053l-9.332,9.908l6.201,10.978
					l-9.939-0.055l-2.929-6.749l-6.006,6.699l-9.229-0.051l9.995-10.889L50.186,22.701 M47.667,21.254l1.286,2.176l5.361,9.077
					l-9.276,10.106l-2.189,2.385l3.237,0.018l9.229,0.051l0.645,0.004l0.431-0.48l4.514-5.035l2.039,4.698l0.373,0.857l0.935,0.005
					l9.939,0.055l2.471,0.014l-1.215-2.152l-5.682-10.058l8.608-9.139l2.258-2.397l-3.293-0.019l-9.396-0.053l-0.65-0.004
					l-0.431,0.487l-3.636,4.104l-1.611-3.76l-0.37-0.863l-0.939-0.005l-10.107-0.057L47.667,21.254L47.667,21.254z"/>
			</g>
			<g>
				<path fill="#01155C" d="M76.67,44.467l5.325-30.259l16.362,0.089c3.623,0.021,6.256,0.886,7.827,2.572
					c1.593,1.709,2.129,4.124,1.593,7.174c-0.542,3.081-1.978,5.522-4.268,7.255c-2.24,1.697-5.349,2.558-9.241,2.558l-4.741-0.026
					l-1.882,10.698L76.67,44.467z M92.284,26.567c1.707,0,2.886-0.25,3.59-0.745c0.689-0.483,1.087-1.079,1.218-1.822
					c0.123-0.691-0.009-1.254-0.401-1.722c-0.218-0.259-0.886-0.696-2.91-0.707l-2.094-0.012l-0.879,4.999
					C90.808,26.558,92.283,26.567,92.284,26.567z"/>
				<path fill="#FFFFFF" d="M82.596,14.928l15.757,0.086c3.432,0.02,5.868,0.8,7.306,2.343c1.438,1.543,1.91,3.729,1.412,6.562
					c-0.512,2.912-1.844,5.18-3.995,6.808c-2.122,1.608-5.059,2.413-8.809,2.413c-0.05,0-0.101,0-0.152,0l-5.19-0.029l-1.882,10.698
					l-9.521-0.053L82.596,14.928 M92.365,27.284c1.783,0,3.088-0.292,3.92-0.875c0.844-0.592,1.348-1.353,1.512-2.284
					c0.16-0.902-0.027-1.673-0.558-2.306c-0.532-0.633-1.683-0.954-3.455-0.963l-2.699-0.016l-1.131,6.43l2.322,0.014
					C92.307,27.284,92.336,27.284,92.365,27.284 M81.395,13.488l-0.21,1.191l-5.073,28.827l-0.294,1.672l1.698,0.009l9.521,0.053
					l1.209,0.007l0.21-1.191l1.672-9.507l3.98,0.022l0.16,0c4.052,0,7.307-0.91,9.674-2.704c2.438-1.845,3.966-4.437,4.541-7.701
					c0.577-3.285-0.02-5.905-1.775-7.788c-1.71-1.836-4.518-2.778-8.346-2.799l-15.758-0.086L81.395,13.488L81.395,13.488z
					 M91.66,25.847l0.627-3.567l1.489,0.008c1.973,0.011,2.362,0.448,2.366,0.452c0.17,0.204,0.353,0.517,0.244,1.134
					c-0.098,0.556-0.391,0.988-0.923,1.361c-0.4,0.281-1.262,0.616-3.098,0.616h-0.081L91.66,25.847L91.66,25.847z"/>
			</g>
			<g>
				<polygon fill="#01155C" points="106.221,39.02 107.297,32.904 118.119,32.962 117.042,39.079 				"/>
				<path fill="#FFFFFF" d="M107.898,33.624l9.368,0.051l-0.825,4.685l-9.367-0.051L107.898,33.624 M106.696,32.184l-0.209,1.192
					l-0.824,4.685l-0.294,1.672l1.698,0.009l9.367,0.051l1.209,0.007l0.21-1.191l0.825-4.685l0.294-1.672l-1.698-0.009l-9.368-0.051
					L106.696,32.184L106.696,32.184z"/>
			</g>
			<g>
				<path fill="#01155C" d="M127.996,45.121c-4.197-0.021-6.929-0.815-8.353-2.426c-1.397-1.584-2.002-3.6-1.797-5.993l0.053-0.622
					l8.294-0.438l-0.027,0.782c-0.031,0.885,0.093,1.546,0.367,1.965c0.445,0.679,1.209,1.012,2.334,1.017c0,0,0,0,0.001,0
					c0.885,0,1.568-0.179,2.066-0.531c0.478-0.338,0.745-0.699,0.815-1.102c0.04-0.224,0.038-0.528-0.324-0.89
					c-0.158-0.159-0.774-0.58-3.096-1.091c-3.19-0.719-5.35-1.656-6.604-2.867c-1.332-1.276-1.835-2.912-1.494-4.86
					c0.22-1.247,0.813-2.43,1.762-3.517c0.941-1.077,2.225-1.929,3.816-2.53c1.527-0.578,3.522-0.871,5.931-0.871l0.181,0
					c3.151,0.017,5.42,0.584,6.938,1.736c1.566,1.193,2.303,3.065,2.189,5.563l-0.029,0.652l-7.353,0.36
					c1.45,0.409,2.561,0.82,3.358,1.241c1.377,0.729,2.335,1.659,2.85,2.766c0.508,1.094,0.646,2.324,0.413,3.657
					c-0.27,1.525-0.97,2.939-2.081,4.206c-1.103,1.258-2.518,2.222-4.206,2.863c-1.625,0.617-3.594,0.93-5.853,0.93L127.996,45.121z
					 M130.489,26.636c-0.692,0-1.21,0.122-1.563,0.363c-0.316,0.217-0.494,0.46-0.543,0.741c-0.01,0.056-0.025,0.139,0.139,0.291
					c0.049,0.049,0.344,0.31,1.921,0.639c0.857,0.186,1.642,0.37,2.355,0.554l-0.004-0.471c-0.005-0.769-0.18-1.314-0.518-1.62
					C131.918,26.808,131.316,26.641,130.489,26.636L130.489,26.636z"/>
				<path fill="#FFFFFF" d="M131.743,21.863c0.059,0,0.116,0,0.176,0c2.965,0.016,5.133,0.546,6.508,1.59
					c1.373,1.046,2.01,2.697,1.907,4.96l-6.822,0.334c-0.007-0.983-0.259-1.699-0.754-2.146c-0.498-0.45-1.252-0.676-2.264-0.683
					c-0.01,0-0.02,0-0.029,0c-0.82,0-1.467,0.164-1.942,0.488c-0.479,0.33-0.762,0.733-0.845,1.209
					c-0.061,0.346,0.057,0.661,0.357,0.939c0.287,0.289,1.04,0.561,2.263,0.816c3.022,0.653,5.152,1.306,6.395,1.962
					c1.241,0.657,2.086,1.469,2.534,2.434c0.447,0.963,0.566,2.041,0.357,3.231c-0.247,1.398-0.884,2.684-1.914,3.857
					c-1.031,1.177-2.338,2.064-3.922,2.666c-1.549,0.588-3.415,0.883-5.598,0.883c-0.05,0-0.099,0-0.149,0
					c-3.945-0.02-6.552-0.749-7.82-2.184c-1.268-1.437-1.809-3.256-1.621-5.458l6.89-0.364c-0.036,1.042,0.126,1.836,0.484,2.383
					c0.583,0.889,1.56,1.335,2.931,1.341c0.013,0,0.026,0,0.04,0c1.005,0,1.818-0.22,2.444-0.663
					c0.633-0.448,1.003-0.969,1.107-1.563c0.1-0.566-0.075-1.073-0.524-1.521c-0.449-0.45-1.598-0.876-3.447-1.284
					c-3.028-0.682-5.114-1.577-6.26-2.683c-1.157-1.109-1.584-2.515-1.285-4.221c0.198-1.121,0.729-2.176,1.596-3.169
					c0.866-0.991,2.043-1.77,3.53-2.332C127.516,22.139,129.408,21.863,131.743,21.863 M131.743,20.43
					c-2.495,0-4.576,0.308-6.185,0.917c-1.703,0.644-3.083,1.562-4.103,2.729c-1.036,1.186-1.685,2.486-1.928,3.863
					c-0.38,2.168,0.209,4.071,1.705,5.504c0.622,0.601,1.44,1.136,2.467,1.613l-5.216,0.275l-1.246,0.066l-0.106,1.243
					c-0.221,2.596,0.443,4.792,1.974,6.528c1.567,1.774,4.475,2.646,8.888,2.669l0.156,0c2.346,0,4.4-0.329,6.106-0.977
					c1.8-0.684,3.311-1.713,4.491-3.061c1.198-1.365,1.955-2.897,2.247-4.552c0.26-1.481,0.103-2.855-0.469-4.085
					c-0.581-1.251-1.646-2.294-3.164-3.097c-0.041-0.022-0.083-0.044-0.126-0.066l3.169-0.155l1.303-0.064l0.059-1.303
					c0.125-2.747-0.707-4.821-2.471-6.165c-1.646-1.25-4.057-1.866-7.368-1.883L131.743,20.43L131.743,20.43z M129.287,27.622
					c0.015-0.011,0.031-0.023,0.048-0.035c0.221-0.151,0.623-0.235,1.13-0.235c0.647,0.004,1.113,0.115,1.332,0.313
					c0.12,0.109,0.207,0.332,0.25,0.634c-0.458-0.11-0.94-0.219-1.447-0.329C129.93,27.83,129.523,27.708,129.287,27.622
					L129.287,27.622z M128.904,38.689c-1.188-0.005-1.579-0.398-1.772-0.693c-0.107-0.165-0.284-0.584-0.25-1.547l0.009-0.273
					c0.407,0.109,0.833,0.214,1.278,0.314c2.24,0.494,2.708,0.863,2.753,0.904c0.142,0.142,0.133,0.191,0.122,0.255
					c-0.036,0.205-0.213,0.421-0.524,0.642C130.146,38.555,129.603,38.689,128.904,38.689L128.904,38.689z"/>
			</g>
			<g>
				<path fill="#01155C" d="M153.091,45.26c-2.615-0.014-4.734-0.396-6.299-1.136c-1.62-0.764-2.91-2.105-3.835-3.986
					c-0.919-1.87-1.132-4.262-0.632-7.108c0.663-3.762,2.271-6.698,4.779-8.729c2.478-2.001,5.675-3.016,9.504-3.016h0.127
					c3.065,0.017,5.43,0.639,7.024,1.848c1.618,1.226,2.661,3.104,3.101,5.581l0.122,0.693L159,30.973l-0.115-0.735
					c-0.117-0.744-0.266-1.07-0.344-1.198c-0.246-0.411-0.567-0.716-0.986-0.938c-0.425-0.225-0.943-0.34-1.542-0.343l0,0
					c-1.437,0-2.578,0.517-3.518,1.581c-0.723,0.805-1.249,2.128-1.567,3.935c-0.485,2.756-0.17,3.936,0.18,4.441
					c0.487,0.703,1.295,1.047,2.471,1.054h0.001c1.224,0,2.134-0.292,2.824-0.893c0.739-0.64,1.374-1.606,1.888-2.872l0.246-0.607
					l7.362,2.245l-0.317,0.736c-0.747,1.727-1.714,3.194-2.874,4.359c-1.17,1.17-2.539,2.063-4.069,2.656
					c-1.492,0.576-3.313,0.868-5.411,0.868H153.091z"/>
				<path fill="#FFFFFF" d="M156.608,22c0.041,0,0.082,0,0.123,0c2.92,0.016,5.12,0.584,6.596,1.703
					c1.477,1.119,2.419,2.831,2.827,5.135l-6.562,1.288c-0.104-0.665-0.252-1.152-0.44-1.46c-0.31-0.517-0.731-0.916-1.263-1.197
					s-1.155-0.423-1.873-0.427c-0.011,0-0.021,0-0.031,0c-1.61,0-2.952,0.605-4.027,1.823c-0.813,0.906-1.393,2.335-1.736,4.285
					c-0.425,2.414-0.326,4.075,0.297,4.974c0.624,0.9,1.641,1.354,3.056,1.362c0.015,0,0.029,0,0.044,0
					c1.351,0,2.436-0.355,3.256-1.069c0.828-0.717,1.522-1.767,2.081-3.143l5.969,1.82c-0.714,1.651-1.622,3.031-2.724,4.138
					c-1.103,1.103-2.377,1.934-3.82,2.493c-1.414,0.546-3.132,0.82-5.152,0.82c-0.044,0-0.089,0-0.133,0
					c-2.521-0.014-4.52-0.369-5.996-1.067c-1.477-0.696-2.644-1.915-3.498-3.654c-0.855-1.74-1.045-3.963-0.569-6.668
					c0.635-3.605,2.144-6.369,4.524-8.296C149.911,22.955,152.929,22,156.608,22 M156.608,20.567c-3.997,0-7.346,1.068-9.953,3.175
					c-2.648,2.143-4.343,5.226-5.035,9.162c-0.527,3-0.294,5.54,0.694,7.549c0.997,2.03,2.401,3.483,4.173,4.318
					c1.682,0.795,3.841,1.189,6.6,1.204l0.141,0c2.188,0,4.095-0.308,5.669-0.916c1.625-0.629,3.077-1.576,4.317-2.816
					c1.227-1.232,2.243-2.773,3.025-4.583l0.637-1.472l-1.534-0.468l-5.969-1.82l-1.253-0.382l-0.493,1.214
					c-0.471,1.16-1.04,2.035-1.691,2.599c-0.557,0.485-1.314,0.72-2.317,0.72c-1.268-0.007-1.702-0.429-1.922-0.746
					c-0.141-0.203-0.561-1.083-0.063-3.909c0.295-1.673,0.764-2.876,1.392-3.576c0.814-0.922,1.753-1.347,2.961-1.347
					c0.505,0.003,0.912,0.09,1.233,0.26c0.3,0.159,0.53,0.377,0.704,0.667c0.021,0.033,0.145,0.252,0.254,0.947l0.231,1.47
					l1.461-0.287l6.562-1.288l1.38-0.271l-0.245-1.385c-0.472-2.661-1.606-4.689-3.373-6.027c-1.721-1.305-4.229-1.976-7.453-1.993
					L156.608,20.567L156.608,20.567z"/>
			</g>
			<g>
				<path fill="#01155C" d="M181.949,45.047l-0.527-3.605l-7.073-0.038l-1.763,3.592l-9.002-0.051l13.38-23.176l8.807,0.046
					l5.201,23.282L181.949,45.047z M180.553,35.285l-0.721-4.783l-2.385,4.766L180.553,35.285z"/>
				<path fill="#FFFFFF" d="M177.376,22.487l7.819,0.041l4.881,21.847l-7.507-0.041l-0.527-3.605l-8.139-0.043l-1.763,3.592
					l-7.319-0.042L177.376,22.487 M181.386,36.006l-1.182-7.848l-3.914,7.82L181.386,36.006 M176.551,21.049l-0.416,0.721
					L163.58,43.518l-1.233,2.136l2.467,0.014l7.319,0.042l0.898,0.005l0.396-0.807l1.366-2.785l6.008,0.032l0.35,2.386l0.178,1.219
					l1.232,0.007l7.507,0.041l1.799,0.01l-0.393-1.755l-4.881-21.847l-0.249-1.115l-1.142-0.006l-7.819-0.041L176.551,21.049
					L176.551,21.049z M178.604,34.558l0.857-1.711l0.258,1.717L178.604,34.558L178.604,34.558z"/>
			</g>
			<g>
				<path fill="#01155C" d="M191.596,45.1l4.089-23.231l11.255,0.062c2.19,0.012,3.952,0.313,5.236,0.896
					c1.314,0.595,2.357,1.462,3.1,2.578c0.729,1.098,1.179,2.384,1.337,3.821c0.152,1.395,0.092,2.886-0.18,4.431
					c-0.425,2.409-1.063,4.315-1.897,5.667c-0.833,1.351-1.876,2.499-3.099,3.412c-1.231,0.918-2.509,1.536-3.798,1.838
					c-1.661,0.392-3.171,0.591-4.483,0.591L191.596,45.1z M202.356,38.769c1.661,0,2.479-0.211,2.873-0.388
					c0.557-0.249,1.049-0.706,1.465-1.359c0.442-0.691,0.813-1.876,1.103-3.521c0.46-2.607,0.128-3.718-0.232-4.191
					c-0.507-0.667-1.582-1.01-3.194-1.019l-1.184-0.005l-1.845,10.478L202.356,38.769z"/>
				<path fill="#FFFFFF" d="M196.285,22.589l10.65,0.059c2.098,0.012,3.747,0.289,4.944,0.832c1.199,0.542,2.131,1.317,2.799,2.322
					c0.668,1.006,1.075,2.174,1.222,3.503c0.146,1.333,0.088,2.741-0.174,4.229c-0.41,2.328-1.011,4.134-1.801,5.414
					s-1.763,2.351-2.918,3.214c-1.155,0.861-2.332,1.433-3.532,1.714c-1.617,0.381-3.057,0.572-4.32,0.572c-0.02,0-0.038,0-0.058,0
					l-10.649-0.059L196.285,22.589 M202.355,39.486c1.441,0,2.497-0.15,3.168-0.451c0.688-0.309,1.28-0.851,1.775-1.627
					c0.496-0.776,0.896-2.037,1.204-3.782c0.407-2.308,0.284-3.893-0.368-4.75c-0.651-0.857-1.904-1.292-3.761-1.302l-1.788-0.008
					l-2.097,11.909l1.756,0.01C202.282,39.485,202.319,39.486,202.355,39.486 M195.083,21.149l-0.209,1.191l-3.837,21.799
					l-0.295,1.672l1.698,0.009l10.649,0.059l0.065,0c1.368,0,2.933-0.206,4.649-0.61c1.383-0.324,2.749-0.984,4.06-1.96
					c1.297-0.969,2.399-2.184,3.281-3.611c0.895-1.449,1.546-3.385,1.992-5.918c0.284-1.613,0.347-3.171,0.188-4.633
					c-0.171-1.554-0.66-2.946-1.452-4.14c-0.818-1.23-1.963-2.184-3.402-2.835c-1.396-0.632-3.203-0.946-5.527-0.959l-10.65-0.059
					L195.083,21.149L195.083,21.149z M202.195,38.052l1.593-9.047l0.58,0.002c1.338,0.007,2.271,0.269,2.625,0.736
					c0.142,0.186,0.564,0.993,0.099,3.633c-0.341,1.933-0.732,2.839-1.001,3.259c-0.345,0.542-0.722,0.898-1.153,1.092
					c-0.271,0.122-0.966,0.325-2.582,0.325h-0.103L202.195,38.052L202.195,38.052z"/>
			</g>
			<g>
				<path fill="#01155C" d="M232.361,45.324l-0.526-3.605l-7.072-0.038l-1.765,3.592l-9-0.051l13.379-23.176l8.807,0.046
					l5.199,23.282L232.361,45.324z M230.965,35.564l-0.72-4.783l-2.385,4.767L230.965,35.564z"/>
				<path fill="#FFFFFF" d="M227.789,22.764l7.819,0.041l4.879,21.847l-7.506-0.042l-0.526-3.605l-8.138-0.043l-1.765,3.592
					l-7.317-0.042L227.789,22.764 M231.798,36.285l-1.181-7.85l-3.913,7.822L231.798,36.285 M226.964,21.327l-0.416,0.721
					l-12.554,21.748l-1.232,2.136l2.466,0.014l7.317,0.042l0.898,0.005l0.396-0.807l1.369-2.786l6.007,0.032l0.349,2.385
					l0.178,1.219l1.232,0.007l7.506,0.042l1.799,0.01l-0.393-1.756l-4.879-21.847l-0.249-1.115l-1.142-0.006l-7.819-0.041
					L226.964,21.327L226.964,21.327z M229.018,34.837l0.855-1.711l0.259,1.717L229.018,34.837L229.018,34.837z"/>
			</g>
		</g>
</svg>
